<svg xmlns="http://www.w3.org/2000/svg" xmlns:xlink="http://www.w3.org/1999/xlink" width="500" zoomAndPan="magnify" viewBox="0 0 375 374.999991" height="500" preserveAspectRatio="xMidYMid meet" version="1.0"><defs><g/><clipPath id="id1"><path d="M 172 95.953125 L 178 95.953125 L 178 101 L 172 101 Z M 172 95.953125 " clip-rule="nonzero"/></clipPath><clipPath id="id2"><path d="M 184 95.953125 L 189 95.953125 L 189 101 L 184 101 Z M 184 95.953125 " clip-rule="nonzero"/></clipPath><clipPath id="id3"><path d="M 195 95.953125 L 201 95.953125 L 201 101 L 195 101 Z M 195 95.953125 " clip-rule="nonzero"/></clipPath><clipPath id="id4"><path d="M 207 95.953125 L 212 95.953125 L 212 101 L 207 101 Z M 207 95.953125 " clip-rule="nonzero"/></clipPath><clipPath id="id5"><path d="M 219 95.953125 L 224 95.953125 L 224 101 L 219 101 Z M 219 95.953125 " clip-rule="nonzero"/></clipPath><clipPath id="id6"><path d="M 230 95.953125 L 235 95.953125 L 235 101 L 230 101 Z M 230 95.953125 " clip-rule="nonzero"/></clipPath><clipPath id="id7"><path d="M 242 95.953125 L 247 95.953125 L 247 101 L 242 101 Z M 242 95.953125 " clip-rule="nonzero"/></clipPath><clipPath id="id8"><path d="M 253 95.953125 L 259 95.953125 L 259 101 L 253 101 Z M 253 95.953125 " clip-rule="nonzero"/></clipPath><clipPath id="id9"><path d="M 113.589844 212.523438 L 292.699219 212.523438 L 292.699219 278.949219 L 113.589844 278.949219 Z M 113.589844 212.523438 " clip-rule="nonzero"/></clipPath><clipPath id="id10"><path d="M 93 273.78125 L 98.144531 273.78125 L 98.144531 278.949219 L 93 278.949219 Z M 93 273.78125 " clip-rule="nonzero"/></clipPath></defs><g clip-path="url(#id1)"><path fill="#151f28" d="M 177.113281 100.296875 L 172.773438 100.296875 L 172.773438 95.953125 L 177.113281 95.953125 L 177.113281 100.296875 " fill-opacity="1" fill-rule="nonzero"/></g><g clip-path="url(#id2)"><path fill="#151f28" d="M 188.691406 100.296875 L 184.347656 100.296875 L 184.347656 95.953125 L 188.691406 95.953125 L 188.691406 100.296875 " fill-opacity="1" fill-rule="nonzero"/></g><g clip-path="url(#id3)"><path fill="#151f28" d="M 200.265625 100.296875 L 195.925781 100.296875 L 195.925781 95.953125 L 200.265625 95.953125 L 200.265625 100.296875 " fill-opacity="1" fill-rule="nonzero"/></g><g clip-path="url(#id4)"><path fill="#151f28" d="M 211.839844 100.296875 L 207.5 100.296875 L 207.5 95.953125 L 211.839844 95.953125 L 211.839844 100.296875 " fill-opacity="1" fill-rule="nonzero"/></g><g clip-path="url(#id5)"><path fill="#151f28" d="M 223.417969 100.296875 L 219.074219 100.296875 L 219.074219 95.953125 L 223.417969 95.953125 L 223.417969 100.296875 " fill-opacity="1" fill-rule="nonzero"/></g><g clip-path="url(#id6)"><path fill="#151f28" d="M 234.992188 100.296875 L 230.652344 100.296875 L 230.652344 95.953125 L 234.992188 95.953125 L 234.992188 100.296875 " fill-opacity="1" fill-rule="nonzero"/></g><g clip-path="url(#id7)"><path fill="#151f28" d="M 246.566406 100.296875 L 242.226562 100.296875 L 242.226562 95.953125 L 246.566406 95.953125 L 246.566406 100.296875 " fill-opacity="1" fill-rule="nonzero"/></g><g clip-path="url(#id8)"><path fill="#151f28" d="M 258.140625 100.296875 L 253.800781 100.296875 L 253.800781 95.953125 L 258.140625 95.953125 L 258.140625 100.296875 " fill-opacity="1" fill-rule="nonzero"/></g><path fill="#151f28" d="M 177.113281 111.160156 L 172.773438 111.160156 L 172.773438 106.816406 L 177.113281 106.816406 L 177.113281 111.160156 " fill-opacity="1" fill-rule="nonzero"/><path fill="#151f28" d="M 188.691406 111.160156 L 184.347656 111.160156 L 184.347656 106.816406 L 188.691406 106.816406 L 188.691406 111.160156 " fill-opacity="1" fill-rule="nonzero"/><path fill="#151f28" d="M 200.265625 111.160156 L 195.925781 111.160156 L 195.925781 106.816406 L 200.265625 106.816406 L 200.265625 111.160156 " fill-opacity="1" fill-rule="nonzero"/><path fill="#151f28" d="M 211.839844 111.160156 L 207.5 111.160156 L 207.5 106.816406 L 211.839844 106.816406 L 211.839844 111.160156 " fill-opacity="1" fill-rule="nonzero"/><path fill="#151f28" d="M 223.417969 111.160156 L 219.074219 111.160156 L 219.074219 106.816406 L 223.417969 106.816406 L 223.417969 111.160156 " fill-opacity="1" fill-rule="nonzero"/><path fill="#151f28" d="M 234.992188 111.160156 L 230.652344 111.160156 L 230.652344 106.816406 L 234.992188 106.816406 L 234.992188 111.160156 " fill-opacity="1" fill-rule="nonzero"/><path fill="#151f28" d="M 246.566406 111.160156 L 242.226562 111.160156 L 242.226562 106.816406 L 246.566406 106.816406 L 246.566406 111.160156 " fill-opacity="1" fill-rule="nonzero"/><path fill="#151f28" d="M 258.140625 111.160156 L 253.800781 111.160156 L 253.800781 106.816406 L 258.140625 106.816406 L 258.140625 111.160156 " fill-opacity="1" fill-rule="nonzero"/><path fill="#151f28" d="M 177.113281 122.027344 L 172.773438 122.027344 L 172.773438 117.679688 L 177.113281 117.679688 L 177.113281 122.027344 " fill-opacity="1" fill-rule="nonzero"/><path fill="#151f28" d="M 188.691406 122.027344 L 184.347656 122.027344 L 184.347656 117.679688 L 188.691406 117.679688 L 188.691406 122.027344 " fill-opacity="1" fill-rule="nonzero"/><path fill="#151f28" d="M 200.265625 122.027344 L 195.925781 122.027344 L 195.925781 117.679688 L 200.265625 117.679688 L 200.265625 122.027344 " fill-opacity="1" fill-rule="nonzero"/><path fill="#151f28" d="M 211.839844 122.027344 L 207.5 122.027344 L 207.5 117.679688 L 211.839844 117.679688 L 211.839844 122.027344 " fill-opacity="1" fill-rule="nonzero"/><path fill="#151f28" d="M 223.417969 122.027344 L 219.074219 122.027344 L 219.074219 117.679688 L 223.417969 117.679688 L 223.417969 122.027344 " fill-opacity="1" fill-rule="nonzero"/><path fill="#151f28" d="M 234.992188 122.027344 L 230.652344 122.027344 L 230.652344 117.679688 L 234.992188 117.679688 L 234.992188 122.027344 " fill-opacity="1" fill-rule="nonzero"/><path fill="#151f28" d="M 246.566406 122.027344 L 242.226562 122.027344 L 242.226562 117.679688 L 246.566406 117.679688 L 246.566406 122.027344 " fill-opacity="1" fill-rule="nonzero"/><path fill="#151f28" d="M 258.140625 122.027344 L 253.800781 122.027344 L 253.800781 117.679688 L 258.140625 117.679688 L 258.140625 122.027344 " fill-opacity="1" fill-rule="nonzero"/><path fill="#151f28" d="M 177.113281 132.890625 L 172.773438 132.890625 L 172.773438 128.542969 L 177.113281 128.542969 L 177.113281 132.890625 " fill-opacity="1" fill-rule="nonzero"/><path fill="#151f28" d="M 188.691406 132.890625 L 184.347656 132.890625 L 184.347656 128.542969 L 188.691406 128.542969 L 188.691406 132.890625 " fill-opacity="1" fill-rule="nonzero"/><path fill="#151f28" d="M 200.265625 132.890625 L 195.925781 132.890625 L 195.925781 128.542969 L 200.265625 128.542969 L 200.265625 132.890625 " fill-opacity="1" fill-rule="nonzero"/><path fill="#151f28" d="M 211.839844 132.890625 L 207.5 132.890625 L 207.5 128.542969 L 211.839844 128.542969 L 211.839844 132.890625 " fill-opacity="1" fill-rule="nonzero"/><path fill="#151f28" d="M 223.417969 132.890625 L 219.074219 132.890625 L 219.074219 128.542969 L 223.417969 128.542969 L 223.417969 132.890625 " fill-opacity="1" fill-rule="nonzero"/><path fill="#151f28" d="M 234.992188 132.890625 L 230.652344 132.890625 L 230.652344 128.542969 L 234.992188 128.542969 L 234.992188 132.890625 " fill-opacity="1" fill-rule="nonzero"/><path fill="#151f28" d="M 246.566406 132.890625 L 242.226562 132.890625 L 242.226562 128.542969 L 246.566406 128.542969 L 246.566406 132.890625 " fill-opacity="1" fill-rule="nonzero"/><path fill="#151f28" d="M 258.140625 132.890625 L 253.800781 132.890625 L 253.800781 128.542969 L 258.140625 128.542969 L 258.140625 132.890625 " fill-opacity="1" fill-rule="nonzero"/><path fill="#151f28" d="M 177.113281 143.753906 L 172.773438 143.753906 L 172.773438 139.40625 L 177.113281 139.40625 L 177.113281 143.753906 " fill-opacity="1" fill-rule="nonzero"/><path fill="#151f28" d="M 188.691406 143.753906 L 184.347656 143.753906 L 184.347656 139.40625 L 188.691406 139.40625 L 188.691406 143.753906 " fill-opacity="1" fill-rule="nonzero"/><path fill="#151f28" d="M 200.265625 143.753906 L 195.925781 143.753906 L 195.925781 139.40625 L 200.265625 139.40625 L 200.265625 143.753906 " fill-opacity="1" fill-rule="nonzero"/><path fill="#151f28" d="M 211.839844 143.753906 L 207.5 143.753906 L 207.5 139.40625 L 211.839844 139.40625 L 211.839844 143.753906 " fill-opacity="1" fill-rule="nonzero"/><path fill="#151f28" d="M 223.417969 143.753906 L 219.074219 143.753906 L 219.074219 139.40625 L 223.417969 139.40625 L 223.417969 143.753906 " fill-opacity="1" fill-rule="nonzero"/><path fill="#151f28" d="M 234.992188 143.753906 L 230.652344 143.753906 L 230.652344 139.40625 L 234.992188 139.40625 L 234.992188 143.753906 " fill-opacity="1" fill-rule="nonzero"/><path fill="#151f28" d="M 246.566406 143.753906 L 242.226562 143.753906 L 242.226562 139.40625 L 246.566406 139.40625 L 246.566406 143.753906 " fill-opacity="1" fill-rule="nonzero"/><path fill="#151f28" d="M 258.140625 143.753906 L 253.800781 143.753906 L 253.800781 139.40625 L 258.140625 139.40625 L 258.140625 143.753906 " fill-opacity="1" fill-rule="nonzero"/><path fill="#151f28" d="M 177.113281 154.617188 L 172.773438 154.617188 L 172.773438 150.273438 L 177.113281 150.273438 L 177.113281 154.617188 " fill-opacity="1" fill-rule="nonzero"/><path fill="#151f28" d="M 188.691406 154.617188 L 184.347656 154.617188 L 184.347656 150.273438 L 188.691406 150.273438 L 188.691406 154.617188 " fill-opacity="1" fill-rule="nonzero"/><path fill="#151f28" d="M 200.265625 154.617188 L 195.925781 154.617188 L 195.925781 150.273438 L 200.265625 150.273438 L 200.265625 154.617188 " fill-opacity="1" fill-rule="nonzero"/><path fill="#151f28" d="M 211.839844 154.617188 L 207.5 154.617188 L 207.5 150.273438 L 211.839844 150.273438 L 211.839844 154.617188 " fill-opacity="1" fill-rule="nonzero"/><path fill="#151f28" d="M 223.417969 154.617188 L 219.074219 154.617188 L 219.074219 150.273438 L 223.417969 150.273438 L 223.417969 154.617188 " fill-opacity="1" fill-rule="nonzero"/><path fill="#151f28" d="M 234.992188 154.617188 L 230.652344 154.617188 L 230.652344 150.273438 L 234.992188 150.273438 L 234.992188 154.617188 " fill-opacity="1" fill-rule="nonzero"/><path fill="#151f28" d="M 246.566406 154.617188 L 242.226562 154.617188 L 242.226562 150.273438 L 246.566406 150.273438 L 246.566406 154.617188 " fill-opacity="1" fill-rule="nonzero"/><path fill="#151f28" d="M 258.140625 154.617188 L 253.800781 154.617188 L 253.800781 150.273438 L 258.140625 150.273438 L 258.140625 154.617188 " fill-opacity="1" fill-rule="nonzero"/><path fill="#151f28" d="M 177.113281 165.480469 L 172.773438 165.480469 L 172.773438 161.136719 L 177.113281 161.136719 L 177.113281 165.480469 " fill-opacity="1" fill-rule="nonzero"/><path fill="#151f28" d="M 188.691406 165.480469 L 184.347656 165.480469 L 184.347656 161.136719 L 188.691406 161.136719 L 188.691406 165.480469 " fill-opacity="1" fill-rule="nonzero"/><path fill="#151f28" d="M 200.265625 165.480469 L 195.925781 165.480469 L 195.925781 161.136719 L 200.265625 161.136719 L 200.265625 165.480469 " fill-opacity="1" fill-rule="nonzero"/><path fill="#151f28" d="M 211.839844 165.480469 L 207.5 165.480469 L 207.5 161.136719 L 211.839844 161.136719 L 211.839844 165.480469 " fill-opacity="1" fill-rule="nonzero"/><path fill="#151f28" d="M 223.417969 165.480469 L 219.074219 165.480469 L 219.074219 161.136719 L 223.417969 161.136719 L 223.417969 165.480469 " fill-opacity="1" fill-rule="nonzero"/><path fill="#151f28" d="M 234.992188 165.480469 L 230.652344 165.480469 L 230.652344 161.136719 L 234.992188 161.136719 L 234.992188 165.480469 " fill-opacity="1" fill-rule="nonzero"/><path fill="#151f28" d="M 246.566406 165.480469 L 242.226562 165.480469 L 242.226562 161.136719 L 246.566406 161.136719 L 246.566406 165.480469 " fill-opacity="1" fill-rule="nonzero"/><path fill="#151f28" d="M 258.140625 165.480469 L 253.800781 165.480469 L 253.800781 161.136719 L 258.140625 161.136719 L 258.140625 165.480469 " fill-opacity="1" fill-rule="nonzero"/><path fill="#151f28" d="M 177.113281 176.347656 L 172.773438 176.347656 L 172.773438 172 L 177.113281 172 L 177.113281 176.347656 " fill-opacity="1" fill-rule="nonzero"/><path fill="#151f28" d="M 188.691406 176.347656 L 184.347656 176.347656 L 184.347656 172 L 188.691406 172 L 188.691406 176.347656 " fill-opacity="1" fill-rule="nonzero"/><path fill="#151f28" d="M 200.265625 176.347656 L 195.925781 176.347656 L 195.925781 172 L 200.265625 172 L 200.265625 176.347656 " fill-opacity="1" fill-rule="nonzero"/><path fill="#151f28" d="M 211.839844 176.347656 L 207.5 176.347656 L 207.5 172 L 211.839844 172 L 211.839844 176.347656 " fill-opacity="1" fill-rule="nonzero"/><path fill="#151f28" d="M 223.417969 176.347656 L 219.074219 176.347656 L 219.074219 172 L 223.417969 172 L 223.417969 176.347656 " fill-opacity="1" fill-rule="nonzero"/><path fill="#151f28" d="M 234.992188 176.347656 L 230.652344 176.347656 L 230.652344 172 L 234.992188 172 L 234.992188 176.347656 " fill-opacity="1" fill-rule="nonzero"/><path fill="#151f28" d="M 246.566406 176.347656 L 242.226562 176.347656 L 242.226562 172 L 246.566406 172 L 246.566406 176.347656 " fill-opacity="1" fill-rule="nonzero"/><path fill="#151f28" d="M 258.140625 176.347656 L 253.800781 176.347656 L 253.800781 172 L 258.140625 172 L 258.140625 176.347656 " fill-opacity="1" fill-rule="nonzero"/><g clip-path="url(#id9)"><path fill="#050038" d="M 292.699219 278.949219 L 113.8125 278.949219 L 113.8125 212.546875 L 292.699219 212.546875 L 292.699219 278.949219 " fill-opacity="1" fill-rule="nonzero"/></g><path fill="#151f28" d="M 125.570312 198.679688 L 257.464844 198.679688 L 257.464844 118.023438 L 125.570312 118.023438 Z M 261.53125 202.75 L 121.503906 202.75 L 121.503906 113.953125 L 261.53125 113.953125 L 261.53125 202.75 " fill-opacity="1" fill-rule="nonzero"/><path fill="#ff8566" d="M 229.003906 239.390625 L 93.046875 239.390625 L 93.046875 154.664062 L 229.003906 154.664062 L 229.003906 239.390625 " fill-opacity="1" fill-rule="nonzero"/><path fill="#151f28" d="M 95.078125 237.355469 L 226.972656 237.355469 L 226.972656 156.695312 L 95.078125 156.695312 Z M 231.039062 241.425781 L 91.011719 241.425781 L 91.011719 152.628906 L 231.039062 152.628906 L 231.039062 241.425781 " fill-opacity="1" fill-rule="nonzero"/><path fill="#151f28" d="M 230.601562 240.648438 L 227.410156 238.128906 L 257.902344 199.453125 L 261.09375 201.972656 L 230.601562 240.648438 " fill-opacity="1" fill-rule="nonzero"/><path fill="#151f28" d="M 245.847656 240.648438 L 242.65625 238.128906 L 255.9375 221.285156 L 259.128906 223.804688 L 245.847656 240.648438 " fill-opacity="1" fill-rule="nonzero"/><path fill="#151f28" d="M 259.128906 240.648438 L 255.9375 238.128906 L 269.21875 221.285156 L 272.410156 223.804688 L 259.128906 240.648438 " fill-opacity="1" fill-rule="nonzero"/><path fill="#151f28" d="M 272.410156 240.648438 L 269.21875 238.128906 L 282.5 221.285156 L 285.695312 223.804688 L 272.410156 240.648438 " fill-opacity="1" fill-rule="nonzero"/><path fill="#151f28" d="M 94.640625 155.921875 L 91.449219 153.402344 L 121.941406 114.726562 L 125.132812 117.246094 L 94.640625 155.921875 " fill-opacity="1" fill-rule="nonzero"/><path fill="#151f28" d="M 230.601562 155.921875 L 227.410156 153.402344 L 257.902344 114.726562 L 261.09375 117.246094 L 230.601562 155.921875 " fill-opacity="1" fill-rule="nonzero"/><path fill="#151f28" d="M 142.585938 231.628906 L 134.453125 218.730469 L 137.890625 216.558594 L 146.027344 229.460938 L 142.585938 231.628906 " fill-opacity="1" fill-rule="nonzero"/><path fill="#151f28" d="M 129.953125 231.628906 L 121.820312 218.730469 L 125.257812 216.558594 L 133.390625 229.460938 L 129.953125 231.628906 " fill-opacity="1" fill-rule="nonzero"/><path fill="#151f28" d="M 117.316406 231.628906 L 109.183594 218.730469 L 112.621094 216.558594 L 120.753906 229.460938 L 117.316406 231.628906 " fill-opacity="1" fill-rule="nonzero"/><g clip-path="url(#id10)"><path fill="#151f28" d="M 98.050781 273.9375 L 93.046875 273.9375 L 93.046875 278.949219 L 98.050781 278.949219 L 98.050781 273.9375 " fill-opacity="1" fill-rule="nonzero"/></g><path fill="#151f28" d="M 98.050781 262.351562 L 93.046875 262.351562 L 93.046875 267.359375 L 98.050781 267.359375 L 98.050781 262.351562 " fill-opacity="1" fill-rule="nonzero"/><path fill="#151f28" d="M 98.050781 250.761719 L 93.046875 250.761719 L 93.046875 255.769531 L 98.050781 255.769531 L 98.050781 250.761719 " fill-opacity="1" fill-rule="nonzero"/><path fill="#151f28" d="M 273.113281 201.734375 L 269.597656 199.695312 L 277.136719 186.707031 L 269.003906 172.695312 L 277.132812 158.699219 L 269.003906 144.710938 L 277.730469 129.695312 L 281.242188 131.742188 L 273.707031 144.710938 L 281.839844 158.699219 L 273.707031 172.695312 L 281.835938 186.707031 L 273.113281 201.734375 " fill-opacity="1" fill-rule="nonzero"/><path fill="#050038" d="M 141.457031 134.957031 L 130.890625 130.5625 L 132.449219 126.800781 L 141.457031 130.546875 L 151.246094 126.476562 L 161.804688 130.871094 L 160.246094 134.632812 L 151.246094 130.886719 L 141.457031 134.957031 " fill-opacity="1" fill-rule="nonzero"/><g fill="#000000" fill-opacity="1"><g transform="translate(107.099386, 207.322645)"><g><path d="M 10.28125 -11.828125 L 19 -11.828125 L 19 -0.9375 C 16.632812 -0.125 14.035156 0.28125 11.203125 0.28125 C 8.085938 0.28125 5.679688 -0.617188 3.984375 -2.421875 C 2.285156 -4.234375 1.4375 -6.8125 1.4375 -10.15625 C 1.4375 -13.40625 2.363281 -15.9375 4.21875 -17.75 C 6.082031 -19.570312 8.691406 -20.484375 12.046875 -20.484375 C 13.316406 -20.484375 14.515625 -20.363281 15.640625 -20.125 C 16.765625 -19.882812 17.75 -19.578125 18.59375 -19.203125 L 16.859375 -14.921875 C 15.398438 -15.640625 13.800781 -16 12.0625 -16 C 10.476562 -16 9.25 -15.476562 8.375 -14.4375 C 7.507812 -13.40625 7.078125 -11.929688 7.078125 -10.015625 C 7.078125 -8.128906 7.46875 -6.691406 8.25 -5.703125 C 9.039062 -4.710938 10.175781 -4.21875 11.65625 -4.21875 C 12.46875 -4.21875 13.210938 -4.296875 13.890625 -4.453125 L 13.890625 -7.609375 L 10.28125 -7.609375 Z M 10.28125 -11.828125 "/></g></g><g transform="translate(128.036561, 207.322645)"><g><path d="M 14.5625 0 L 13.578125 -3.78125 L 7.015625 -3.78125 L 6 0 L 0 0 L 6.59375 -20.265625 L 13.859375 -20.265625 L 20.53125 0 Z M 12.4375 -8.265625 L 11.578125 -11.578125 C 11.367188 -12.304688 11.117188 -13.253906 10.828125 -14.421875 C 10.535156 -15.597656 10.347656 -16.4375 10.265625 -16.9375 C 10.179688 -16.46875 10.015625 -15.695312 9.765625 -14.625 C 9.523438 -13.550781 8.984375 -11.429688 8.140625 -8.265625 Z M 12.4375 -8.265625 "/></g></g><g transform="translate(148.573222, 207.322645)"><g><path d="M 10.984375 0 L 6.84375 -14.546875 L 6.71875 -14.546875 C 6.914062 -12.066406 7.015625 -10.140625 7.015625 -8.765625 L 7.015625 0 L 2.1875 0 L 2.1875 -20.1875 L 9.453125 -20.1875 L 13.65625 -5.859375 L 13.765625 -5.859375 L 17.890625 -20.1875 L 25.171875 -20.1875 L 25.171875 0 L 20.15625 0 L 20.15625 -8.859375 C 20.15625 -9.316406 20.160156 -9.828125 20.171875 -10.390625 C 20.191406 -10.953125 20.257812 -12.328125 20.375 -14.515625 L 20.25 -14.515625 L 16.171875 0 Z M 10.984375 0 "/></g></g><g transform="translate(175.918608, 207.322645)"><g><path d="M 14.171875 0 L 2.1875 0 L 2.1875 -20.1875 L 14.171875 -20.1875 L 14.171875 -15.8125 L 7.640625 -15.8125 L 7.640625 -12.640625 L 13.6875 -12.640625 L 13.6875 -8.265625 L 7.640625 -8.265625 L 7.640625 -4.453125 L 14.171875 -4.453125 Z M 14.171875 0 "/></g></g><g transform="translate(191.441949, 207.322645)"><g><path d="M 15.390625 -6.125 C 15.390625 -4.875 15.070312 -3.765625 14.4375 -2.796875 C 13.800781 -1.828125 12.882812 -1.070312 11.6875 -0.53125 C 10.488281 0.0078125 9.082031 0.28125 7.46875 0.28125 C 6.125 0.28125 4.992188 0.1875 4.078125 0 C 3.171875 -0.195312 2.226562 -0.53125 1.25 -1 L 1.25 -5.859375 C 2.28125 -5.316406 3.359375 -4.894531 4.484375 -4.59375 C 5.609375 -4.300781 6.640625 -4.15625 7.578125 -4.15625 C 8.390625 -4.15625 8.984375 -4.296875 9.359375 -4.578125 C 9.734375 -4.859375 9.921875 -5.21875 9.921875 -5.65625 C 9.921875 -5.9375 9.84375 -6.179688 9.6875 -6.390625 C 9.539062 -6.597656 9.300781 -6.804688 8.96875 -7.015625 C 8.632812 -7.222656 7.738281 -7.65625 6.28125 -8.3125 C 4.96875 -8.90625 3.976562 -9.484375 3.3125 -10.046875 C 2.65625 -10.609375 2.164062 -11.253906 1.84375 -11.984375 C 1.53125 -12.710938 1.375 -13.570312 1.375 -14.5625 C 1.375 -16.425781 2.050781 -17.878906 3.40625 -18.921875 C 4.757812 -19.960938 6.617188 -20.484375 8.984375 -20.484375 C 11.078125 -20.484375 13.210938 -20 15.390625 -19.03125 L 13.71875 -14.8125 C 11.820312 -15.675781 10.191406 -16.109375 8.828125 -16.109375 C 8.117188 -16.109375 7.601562 -15.984375 7.28125 -15.734375 C 6.957031 -15.492188 6.796875 -15.1875 6.796875 -14.8125 C 6.796875 -14.414062 7 -14.0625 7.40625 -13.75 C 7.8125 -13.4375 8.925781 -12.867188 10.75 -12.046875 C 12.488281 -11.265625 13.695312 -10.421875 14.375 -9.515625 C 15.050781 -8.617188 15.390625 -7.488281 15.390625 -6.125 Z M 15.390625 -6.125 "/></g></g></g><g fill="#e2e2e2" fill-opacity="1"><g transform="translate(150.222586, 267.325823)"><g><path d="M 4.875 -8.015625 L 5.859375 -8.015625 C 6.828125 -8.015625 7.539062 -8.175781 8 -8.5 C 8.457031 -8.820312 8.6875 -9.328125 8.6875 -10.015625 C 8.6875 -10.703125 8.453125 -11.191406 7.984375 -11.484375 C 7.515625 -11.773438 6.785156 -11.921875 5.796875 -11.921875 L 4.875 -11.921875 Z M 4.875 -5.53125 L 4.875 0 L 1.8125 0 L 1.8125 -14.421875 L 6.015625 -14.421875 C 7.972656 -14.421875 9.421875 -14.0625 10.359375 -13.34375 C 11.304688 -12.632812 11.78125 -11.554688 11.78125 -10.109375 C 11.78125 -9.253906 11.546875 -8.492188 11.078125 -7.828125 C 10.609375 -7.171875 9.945312 -6.65625 9.09375 -6.28125 C 11.257812 -3.039062 12.675781 -0.945312 13.34375 0 L 9.9375 0 L 6.5 -5.53125 Z M 4.875 -5.53125 "/></g></g></g><g fill="#e2e2e2" fill-opacity="1"><g transform="translate(163.552068, 267.325823)"><g><path d="M 10.125 0 L 1.8125 0 L 1.8125 -14.421875 L 10.125 -14.421875 L 10.125 -11.921875 L 4.875 -11.921875 L 4.875 -8.75 L 9.75 -8.75 L 9.75 -6.25 L 4.875 -6.25 L 4.875 -2.53125 L 10.125 -2.53125 Z M 10.125 0 "/></g></g></g><g fill="#e2e2e2" fill-opacity="1"><g transform="translate(174.860443, 267.325823)"><g><path d="M 7.296875 -8.09375 L 13.015625 -8.09375 L 13.015625 -0.625 C 12.085938 -0.320312 11.210938 -0.109375 10.390625 0.015625 C 9.578125 0.140625 8.738281 0.203125 7.875 0.203125 C 5.695312 0.203125 4.035156 -0.4375 2.890625 -1.71875 C 1.742188 -3 1.171875 -4.835938 1.171875 -7.234375 C 1.171875 -9.554688 1.835938 -11.367188 3.171875 -12.671875 C 4.503906 -13.972656 6.347656 -14.625 8.703125 -14.625 C 10.191406 -14.625 11.617188 -14.328125 12.984375 -13.734375 L 11.96875 -11.296875 C 10.914062 -11.816406 9.820312 -12.078125 8.6875 -12.078125 C 7.363281 -12.078125 6.304688 -11.632812 5.515625 -10.75 C 4.722656 -9.863281 4.328125 -8.671875 4.328125 -7.171875 C 4.328125 -5.609375 4.644531 -4.410156 5.28125 -3.578125 C 5.925781 -2.753906 6.859375 -2.34375 8.078125 -2.34375 C 8.710938 -2.34375 9.359375 -2.410156 10.015625 -2.546875 L 10.015625 -5.546875 L 7.296875 -5.546875 Z M 7.296875 -8.09375 "/></g></g></g><g fill="#e2e2e2" fill-opacity="1"><g transform="translate(189.481471, 267.325823)"><g><path d="M 1.8125 0 L 1.8125 -14.421875 L 4.875 -14.421875 L 4.875 0 Z M 1.8125 0 "/></g></g></g><g fill="#e2e2e2" fill-opacity="1"><g transform="translate(196.16593, 267.325823)"><g><path d="M 10.328125 -4 C 10.328125 -2.695312 9.859375 -1.671875 8.921875 -0.921875 C 7.984375 -0.171875 6.679688 0.203125 5.015625 0.203125 C 3.472656 0.203125 2.109375 -0.0859375 0.921875 -0.671875 L 0.921875 -3.515625 C 1.898438 -3.078125 2.722656 -2.769531 3.390625 -2.59375 C 4.066406 -2.414062 4.6875 -2.328125 5.25 -2.328125 C 5.914062 -2.328125 6.425781 -2.453125 6.78125 -2.703125 C 7.144531 -2.960938 7.328125 -3.347656 7.328125 -3.859375 C 7.328125 -4.140625 7.25 -4.390625 7.09375 -4.609375 C 6.9375 -4.828125 6.703125 -5.035156 6.390625 -5.234375 C 6.085938 -5.441406 5.46875 -5.769531 4.53125 -6.21875 C 3.644531 -6.632812 2.984375 -7.03125 2.546875 -7.40625 C 2.109375 -7.789062 1.753906 -8.238281 1.484375 -8.75 C 1.222656 -9.257812 1.09375 -9.851562 1.09375 -10.53125 C 1.09375 -11.800781 1.523438 -12.800781 2.390625 -13.53125 C 3.253906 -14.257812 4.453125 -14.625 5.984375 -14.625 C 6.734375 -14.625 7.445312 -14.535156 8.125 -14.359375 C 8.800781 -14.179688 9.515625 -13.929688 10.265625 -13.609375 L 9.265625 -11.234375 C 8.503906 -11.546875 7.867188 -11.765625 7.359375 -11.890625 C 6.859375 -12.015625 6.363281 -12.078125 5.875 -12.078125 C 5.300781 -12.078125 4.859375 -11.941406 4.546875 -11.671875 C 4.234375 -11.410156 4.078125 -11.0625 4.078125 -10.625 C 4.078125 -10.351562 4.140625 -10.117188 4.265625 -9.921875 C 4.390625 -9.722656 4.585938 -9.53125 4.859375 -9.34375 C 5.140625 -9.15625 5.789062 -8.816406 6.8125 -8.328125 C 8.15625 -7.679688 9.078125 -7.035156 9.578125 -6.390625 C 10.078125 -5.742188 10.328125 -4.945312 10.328125 -4 Z M 10.328125 -4 "/></g></g></g><g fill="#e2e2e2" fill-opacity="1"><g transform="translate(207.286978, 267.325823)"><g><path d="M 7.375 0 L 4.328125 0 L 4.328125 -11.875 L 0.40625 -11.875 L 0.40625 -14.421875 L 11.296875 -14.421875 L 11.296875 -11.875 L 7.375 -11.875 Z M 7.375 0 "/></g></g></g><g fill="#e2e2e2" fill-opacity="1"><g transform="translate(218.979852, 267.325823)"><g><path d="M 4.875 -8.015625 L 5.859375 -8.015625 C 6.828125 -8.015625 7.539062 -8.175781 8 -8.5 C 8.457031 -8.820312 8.6875 -9.328125 8.6875 -10.015625 C 8.6875 -10.703125 8.453125 -11.191406 7.984375 -11.484375 C 7.515625 -11.773438 6.785156 -11.921875 5.796875 -11.921875 L 4.875 -11.921875 Z M 4.875 -5.53125 L 4.875 0 L 1.8125 0 L 1.8125 -14.421875 L 6.015625 -14.421875 C 7.972656 -14.421875 9.421875 -14.0625 10.359375 -13.34375 C 11.304688 -12.632812 11.78125 -11.554688 11.78125 -10.109375 C 11.78125 -9.253906 11.546875 -8.492188 11.078125 -7.828125 C 10.609375 -7.171875 9.945312 -6.65625 9.09375 -6.28125 C 11.257812 -3.039062 12.675781 -0.945312 13.34375 0 L 9.9375 0 L 6.5 -5.53125 Z M 4.875 -5.53125 "/></g></g></g><g fill="#e2e2e2" fill-opacity="1"><g transform="translate(232.309334, 267.325823)"><g><path d="M 14.90625 -7.234375 C 14.90625 -4.847656 14.3125 -3.007812 13.125 -1.71875 C 11.945312 -0.4375 10.253906 0.203125 8.046875 0.203125 C 5.828125 0.203125 4.125 -0.4375 2.9375 -1.71875 C 1.757812 -3.007812 1.171875 -4.851562 1.171875 -7.25 C 1.171875 -9.644531 1.765625 -11.476562 2.953125 -12.75 C 4.140625 -14.019531 5.84375 -14.65625 8.0625 -14.65625 C 10.28125 -14.65625 11.972656 -14.015625 13.140625 -12.734375 C 14.316406 -11.460938 14.90625 -9.628906 14.90625 -7.234375 Z M 4.375 -7.234375 C 4.375 -5.617188 4.679688 -4.40625 5.296875 -3.59375 C 5.910156 -2.78125 6.828125 -2.375 8.046875 -2.375 C 10.484375 -2.375 11.703125 -3.992188 11.703125 -7.234375 C 11.703125 -10.484375 10.488281 -12.109375 8.0625 -12.109375 C 6.84375 -12.109375 5.921875 -11.695312 5.296875 -10.875 C 4.679688 -10.050781 4.375 -8.835938 4.375 -7.234375 Z M 4.375 -7.234375 "/></g></g></g></svg>